<svg t="1695082385835" class="icon" viewBox="0 0 1024 1024" version="1.1" xmlns="http://www.w3.org/2000/svg" p-id="1835"
  width="200" height="200">
  <path d="M148.279652 378.991304h345.266087v537.088H148.279652z" fill="#d8f3ff" p-id="1836"></path>
  <path d="M493.545739 378.991304h230.177391v537.088h-230.177391z" fill="#E7FBFC" p-id="1837"></path>
  <path d="M148.279652 378.946783l115.088696-153.444174h345.310609l-115.088696 153.444174z" fill="#EBFEFF" p-id="1838">
  </path>
  <path d="M551.201391 244.736l-86.327652 115.088696h19.18887l86.327652-115.088696z" fill="#C1E8EA" p-id="1839"></path>
  <path
    d="M263.390609 225.54713V148.902957a38.466783 38.466783 0 0 1 38.355478-38.355479h268.55513a38.466783 38.466783 0 0 1 38.355479 38.355479v76.733217z"
    fill="#ECEFF9" p-id="1840"></path>
  <path d="M493.545739 378.946783l115.088696-153.444174 115.088695 153.444174z" fill="#E7FBFC" p-id="1841"></path>
  <path
    d="M416.834783 590.002087H225.057391a19.18887 19.18887 0 1 1 0-38.355478h191.821913a19.18887 19.18887 0 1 1 0 38.355478z m-38.355479 76.733217h-115.088695a19.18887 19.18887 0 0 1 0-38.355478h115.088695a19.18887 19.18887 0 0 1 0 38.355478z"
    fill="#9bbdc8" p-id="1842"></path>
  <path d="M608.634435 258.159304l-76.733218 101.665392h49.864348z" fill="#99B5CD" p-id="1843"></path>
  <path d="M167.468522 398.180174h19.188869v498.643478h-19.188869z" fill="#EBFEFF" p-id="1844"></path>
  <path
    d="M455.190261 444.215652v414.319305a18.120348 18.120348 0 0 1-19.18887 19.188869H251.770435a66.982957 66.982957 0 0 0-46.035478 19.18887H474.37913v-498.643479a66.982957 66.982957 0 0 0-19.188869 45.946435z"
    fill="#c1e1ea" p-id="1845"></path>
  <path
    d="M685.367652 444.215652v414.319305a18.120348 18.120348 0 0 1-19.188869 19.188869h-107.408696a66.982957 66.982957 0 0 0-46.035478 19.18887h191.821913v-498.643479a66.982957 66.982957 0 0 0-19.18887 45.946435z"
    fill="#B0C4D9" p-id="1846"></path>
  <path d="M570.278957 129.625043V206.358261h19.188869V148.813913a18.120348 18.120348 0 0 0-19.188869-19.18887z"
    fill="#D5E3EF" p-id="1847"></path>
  <path
    d="M739.08313 367.482435l-111.304347-147.70087V148.813913A56.520348 56.520348 0 0 0 570.278957 91.269565H301.723826a56.520348 56.520348 0 0 0-57.544348 57.544348v70.967652l-111.304348 147.70087a27.269565 27.269565 0 0 0-3.828869 11.508869v537.088a18.120348 18.120348 0 0 0 19.188869 19.18887h575.510261a18.120348 18.120348 0 0 0 19.18887-19.18887V378.991304a27.269565 27.269565 0 0 0-3.82887-11.508869z m-53.715478-7.68h-153.444174l76.733218-101.576348z m-402.921739-211.010783a18.120348 18.120348 0 0 1 19.18887-19.188869h268.644174a18.120348 18.120348 0 0 1 19.188869 19.188869V206.358261H282.557217z m191.821913 748.098783H167.468522v-498.643478H474.37913z m9.594435-537.088H186.657391l86.327652-115.088696h297.293914z m220.783304 537.110261h-191.910956v-498.643479h191.910956z"
    fill="#9bbdc8" p-id="1848"></path>
  <path
    d="M858.022957 674.393043V551.624348h-230.177392v141.935304a109.924174 109.924174 0 0 0 103.579826-5.743304 153.6 153.6 0 0 1 126.597566-13.356522z"
    fill="#C9D5E3" p-id="1849"></path>
  <path
    d="M754.42087 720.428522a153.021217 153.021217 0 0 1-126.597566 15.337739v122.768696a38.466783 38.466783 0 0 0 38.355479 38.355478h153.444174a38.466783 38.466783 0 0 0 38.355478-38.355478v-141.935305a104.781913 104.781913 0 0 0-103.557565 3.82887z"
    fill="#FFFFFF" p-id="1850"></path>
  <path
    d="M819.667478 705.090783v153.444174a18.120348 18.120348 0 0 1-19.188869 19.188869h-166.956522a37.13113 37.13113 0 0 0 32.612174 19.18887h153.444174a38.466783 38.466783 0 0 0 38.355478-38.355479v-141.935304a127.332174 127.332174 0 0 0-38.266435-11.53113z"
    fill="#DDE1E3" p-id="1851"></path>
  <path
    d="M731.425391 689.753043l11.50887-5.765565V551.624348h-38.355478v149.615304a67.272348 67.272348 0 0 0 26.846608-11.486609z"
    fill="#A7B0C4" p-id="1852"></path>
  <path d="M742.934261 681.961739a149.993739 149.993739 0 0 1 115.088696-7.68v-122.768696h-115.088696z" fill="#E2E7F0"
    p-id="1853"></path>
  <path d="M819.645217 551.624348v115.088695a124.037565 124.037565 0 0 1 38.355479 7.68V551.624348z" fill="#C9D5E3"
    p-id="1854"></path>
  <path
    d="M666.201043 666.735304a18.120348 18.120348 0 0 1-19.188869-19.188869v-95.899826h38.355478v95.899826a18.120348 18.120348 0 0 1-19.166609 19.188869z"
    fill="#ECF0F9" p-id="1855"></path>
  <path
    d="M877.189565 513.26887H608.656696a18.120348 18.120348 0 0 0-19.18887 19.188869v326.077218a76.955826 76.955826 0 0 0 76.733217 76.733217h153.444174a76.955826 76.955826 0 0 0 76.733218-76.733217V532.457739a18.120348 18.120348 0 0 0-19.18887-19.188869z m-249.321739 38.355478h230.177391v122.768695a147.077565 147.077565 0 0 0-126.597565 15.33774 110.213565 110.213565 0 0 1-103.579826 5.743304z m230.177391 306.910609a38.466783 38.466783 0 0 1-38.355478 38.355478h-153.444174a38.466783 38.466783 0 0 1-38.355478-38.355478v-122.657392a132.452174 132.452174 0 0 0 47.949913 7.68 139.998609 139.998609 0 0 0 78.647652-23.017739 104.982261 104.982261 0 0 1 103.579826-3.828869z"
    fill="#9bbdc8" p-id="1856"></path>
</svg>